<?xml version="1.0" encoding="UTF-8"?>
<svg id="svg" width="900" height="600" version="1.1" viewBox="0 0 900 600" xmlns="http://www.w3.org/2000/svg" xmlns:cc="http://creativecommons.org/ns#" xmlns:dc="http://purl.org/dc/elements/1.1/" xmlns:rdf="http://www.w3.org/1999/02/22-rdf-syntax-ns#">
 <metadata>
  <rdf:RDF>
   <cc:Work rdf:about="">
    <dc:format>image/svg+xml</dc:format>
    <dc:type rdf:resource="http://purl.org/dc/dcmitype/StillImage"/>
   </cc:Work>
  </rdf:RDF>
 </metadata>
 <g id="svgg" transform="matrix(2.2513 0 0 2.4444 -.54482 -.59889)" fill-rule="evenodd">
  <path d="m191.16 13.882v13.636h208.6v-27.272h-208.6v13.636m0 54.546v13.39h208.6v-26.781h-208.6v13.391m0 54.545v13.391h208.6v-26.782h-208.6v13.391m-190.5 41.073c-0.09 0.09-0.164 6.171-0.164 13.513v13.35h399.26v-27.027h-199.47c-109.71 0-199.54 0.074-199.63 0.164m-0.164 67.895v13.514h399.26v-27.027h-399.26v13.513" fill="#f44434"/>
  <path d="m20.338 19.584c-0.212 0.512-1.115 2.48-2.008 4.372-1.869 3.96-1.088 3.465-6.782 4.295-1.96 0.285-3.722 0.574-3.917 0.641-0.238 0.081 0.766 1.245 3.041 3.525l3.396 3.402-0.771 4.634c-0.424 2.548-0.77 4.781-0.768 4.961 1e-3 0.216 0.616-7e-3 1.783-0.647 0.98-0.537 2.81-1.541 4.067-2.233 2.879-1.583 1.607-1.9 9.201 2.295 1.097 0.606 1.659 0.805 1.659 0.587 0-0.182-0.352-2.409-0.783-4.949l-0.784-4.619 3.411-3.417c2.3-2.305 3.295-3.458 3.056-3.543-0.196-0.069-2.286-0.409-4.646-0.756-2.449-0.361-4.371-0.76-4.477-0.93-0.103-0.164-0.981-2.012-1.951-4.106-2.156-4.658-2.221-4.741-2.727-3.512m34.704 3.447c-1.128 2.4-2.061 4.382-2.072 4.403-0.012 0.021-2.012 0.336-4.444 0.698-2.433 0.363-4.499 0.732-4.591 0.822-0.093 0.089 1.068 1.44 2.579 3.002 1.512 1.562 2.996 3.116 3.298 3.452l0.55 0.612-0.747 4.498c-0.41 2.474-0.713 4.646-0.672 4.825 0.05 0.219 1.41-0.415 4.108-1.915l4.033-2.242 1.863 0.979c1.025 0.539 2.96 1.574 4.299 2.3l2.435 1.321-0.14-0.719c-0.077-0.395-0.447-2.63-0.824-4.967l-0.684-4.249 3.242-3.248c1.782-1.787 3.241-3.365 3.241-3.507 0-0.148-1.922-0.545-4.478-0.924-2.462-0.366-4.553-0.746-4.645-0.844s-1.015-2.002-2.052-4.232c-1.036-2.23-1.966-4.139-2.066-4.242s-1.104 1.776-2.233 4.177m38.095-3.805c-1.614 4.105-3.943 8.236-4.72 8.372-0.454 0.079-2.513 0.39-4.577 0.692s-3.722 0.634-3.685 0.739c0.036 0.104 1.476 1.678 3.199 3.497 2.193 2.316 3.131 3.479 3.126 3.88-3e-3 0.314-0.322 2.507-0.708 4.872s-0.678 4.327-0.648 4.361c0.029 0.035 1.868-0.932 4.086-2.148 4.83-2.648 3.718-2.645 8.517-0.02 2.195 1.202 4.035 2.112 4.088 2.023s-0.218-1.931-0.603-4.094c-1.034-5.817-1.236-5.089 2.485-8.956 1.749-1.818 3.098-3.385 2.997-3.481-0.142-0.135-8.108-1.445-8.79-1.445-0.125 0-2.038-3.895-3.891-7.923-0.494-1.074-0.584-1.112-0.876-0.369m35.222 2.3c-0.761 1.607-1.693 3.598-2.071 4.425-0.783 1.716-0.144 1.47-6.079 2.338-2.061 0.302-3.747 0.645-3.747 0.762s1.41 1.653 3.133 3.412c3.675 3.752 3.495 3.13 2.518 8.692-0.421 2.395-0.727 4.391-0.681 4.437s1.185-0.521 2.532-1.259 3.233-1.743 4.19-2.233l1.742-0.891 4.032 2.213c4.783 2.623 4.459 2.918 3.44-3.127l-0.724-4.3 1.271-1.351c0.699-0.744 2.195-2.305 3.325-3.471s1.96-2.178 1.845-2.249c-0.116-0.071-2.2-0.428-4.633-0.793-2.432-0.364-4.438-0.679-4.456-0.699-0.019-0.02-0.941-1.971-2.051-4.336-1.109-2.365-2.058-4.343-2.109-4.396-0.051-0.052-0.716 1.219-1.477 2.826m33.324 1.573c-1.132 2.431-2.147 4.419-2.255 4.419-0.438 0-8.47 1.248-8.799 1.367-0.244 0.088 0.45 0.951 2.216 2.759 1.413 1.447 2.922 3.018 3.351 3.491l0.782 0.86-0.735 4.525c-0.404 2.488-0.703 4.666-0.664 4.839 0.047 0.203 1.474-0.465 4.003-1.873 4.632-2.578 3.992-2.464 6.407-1.148 1.071 0.583 2.932 1.598 4.136 2.255l2.19 1.194-0.14-0.719c-0.077-0.395-0.45-2.629-0.83-4.962l-0.69-4.243 3.418-3.425c2.305-2.309 3.302-3.465 3.063-3.55-0.195-0.069-2.284-0.409-4.643-0.756-2.358-0.347-4.331-0.674-4.383-0.727-0.053-0.053-0.978-1.956-2.056-4.23-1.078-2.273-2.039-4.215-2.136-4.314-0.098-0.1-1.103 1.807-2.235 4.238m29.472 18.179v13.513h208.6v-27.027h-208.6v13.514m-161.92 15.049c-1.692 3.763-3.416 7.266-3.647 7.409-0.144 0.088-2.119 0.435-4.388 0.77-2.27 0.335-4.293 0.643-4.495 0.685-0.233 0.047 0.887 1.351 3.031 3.531l3.399 3.455-0.778 4.842c-0.428 2.663-0.741 4.872-0.697 4.909 0.045 0.036 1.851-0.912 4.013-2.108 4.739-2.621 3.849-2.622 8.599 0.013 2.162 1.2 3.963 2.151 4.002 2.115 0.039-0.037-0.274-2.247-0.696-4.912l-0.767-4.846 3.399-3.47 3.399-3.469-1.843-0.282c-1.013-0.155-3.125-0.472-4.693-0.705l-2.851-0.424-2.063-4.393c-2.357-5.017-2.164-4.812-2.924-3.12m36.538-0.524c-0.894 2.121-3.465 7.495-3.71 7.755-0.15 0.16-2.263 0.591-4.695 0.958s-4.467 0.705-4.52 0.749c-0.054 0.045 1.42 1.643 3.276 3.55 2.709 2.786 3.348 3.573 3.243 3.998-0.365 1.479-1.399 8.182-1.335 8.655 0.081 0.601-0.454 0.85 5.903-2.751 2.305-1.306 2.378-1.309 4.371-0.146 3.01 1.757 6.384 3.51 6.384 3.317 0-0.106-0.332-2.072-0.737-4.37-0.405-2.297-0.737-4.435-0.737-4.751 0-0.403 0.993-1.613 3.321-4.048l3.322-3.473-4.611-0.698c-2.537-0.384-4.678-0.773-4.759-0.866s-1.001-1.993-2.046-4.223c-2.225-4.75-2.214-4.736-2.67-3.656m35.796 1.093c-0.492 1.072-1.418 3.066-2.058 4.43l-1.165 2.482-3.413 0.529c-1.877 0.291-3.938 0.599-4.58 0.685-1.487 0.198-1.68-0.154 2.112 3.863l3.279 3.474-0.788 4.668c-0.434 2.568-0.742 4.721-0.685 4.784 0.106 0.12 2.725-1.235 5.996-3.104 2.524-1.441 1.602-1.689 8.864 2.39 2.065 1.159 1.968 1.529 1.066-4.067l-0.772-4.79 3.21-3.352c1.765-1.844 3.239-3.425 3.275-3.515 0.036-0.089-1.954-0.469-4.423-0.843-2.468-0.374-4.562-0.756-4.653-0.848-0.091-0.093-1.02-1.993-2.065-4.223-1.044-2.229-1.99-4.157-2.102-4.282-0.115-0.13-0.592 0.616-1.098 1.719m35.782 1.156c-0.81 1.701-1.739 3.695-2.064 4.43l-0.592 1.339-2.914 0.433c-1.603 0.238-3.731 0.556-4.73 0.706l-1.815 0.273 3.343 3.44c1.838 1.892 3.346 3.575 3.351 3.741 4e-3 0.165-0.326 2.365-0.734 4.888-0.408 2.524-0.711 4.619-0.674 4.656s1.449-0.699 3.137-1.636c1.689-0.937 3.549-1.951 4.135-2.252l1.065-0.547 2.743 1.456c1.509 0.8 3.352 1.813 4.095 2.251 1.005 0.593 1.372 0.709 1.429 0.455 0.066-0.287-0.879-6.498-1.337-8.791-0.126-0.629 0.179-1.015 3.247-4.111 1.863-1.88 3.338-3.458 3.279-3.506-0.059-0.049-2.097-0.39-4.529-0.757-5.231-0.79-4.386-0.142-6.791-5.209-1.083-2.281-2.015-4.193-2.07-4.249-0.056-0.056-0.764 1.29-1.574 2.99m33.534 1.1c-2.416 5.141-1.707 4.588-6.883 5.369-2.433 0.367-4.471 0.707-4.53 0.756-0.058 0.048 1.417 1.626 3.279 3.506 3.069 3.096 3.373 3.482 3.248 4.111-0.458 2.293-1.403 8.504-1.338 8.791 0.058 0.254 0.424 0.138 1.429-0.455 0.744-0.438 2.586-1.451 4.095-2.251l2.744-1.456 1.065 0.547c0.585 0.301 2.446 1.315 4.134 2.252 1.689 0.937 3.101 1.673 3.138 1.636s-0.266-2.132-0.675-4.656c-0.408-2.523-0.738-4.723-0.733-4.888 4e-3 -0.166 1.512-1.849 3.351-3.741l3.343-3.44-1.816-0.273c-0.998-0.15-3.127-0.468-4.729-0.706l-2.914-0.433-0.592-1.339c-1.04-2.351-3.497-7.445-3.591-7.445-0.05 0-0.961 1.852-2.025 4.115m20.267 36.548v13.637h208.6v-27.273h-208.6v13.636m-172.37-0.103c-2.351 5.04-1.652 4.468-6.257 5.128-2.095 0.3-4.14 0.628-4.546 0.728l-0.737 0.182 3.403 3.463 3.403 3.464-0.786 4.704c-0.432 2.587-0.725 4.764-0.651 4.838 0.074 0.075 1.108-0.395 2.297-1.044s3.019-1.647 4.066-2.217l1.905-1.038 1.904 1.038c1.047 0.57 2.877 1.568 4.066 2.217s2.224 1.118 2.3 1.042c0.075-0.076-0.225-2.237-0.668-4.803l-0.804-4.664 3.235-3.366c1.779-1.851 3.234-3.45 3.234-3.553 0-0.261-0.546-0.37-5.078-1.013l-3.972-0.563-2.024-4.37c-1.113-2.403-2.093-4.37-2.178-4.37s-1.035 1.889-2.112 4.197m36.219 0.172-2.092 4.369-4.508 0.668c-2.479 0.367-4.567 0.727-4.64 0.799-0.072 0.073 1.387 1.654 3.243 3.513l3.375 3.382-0.778 4.726c-0.89 5.401-0.92 5.243 0.808 4.288 0.718-0.397 2.54-1.401 4.05-2.233l2.744-1.512 2.784 1.557c3.456 1.934 5.385 2.916 5.501 2.8 0.048-0.048-0.253-2.206-0.67-4.795l-0.757-4.706 3.163-3.34c1.74-1.836 3.197-3.435 3.238-3.553 0.09-0.26-0.316-0.343-5.034-1.022-2.052-0.296-3.833-0.604-3.958-0.685-0.191-0.124-2.146-4.196-3.698-7.701-0.562-1.268-0.443-1.415-2.771 3.445m37.638-2.833c-0.385 0.845-1.306 2.812-2.045 4.372l-1.344 2.836-4.488 0.655c-2.468 0.361-4.547 0.716-4.62 0.789s1.338 1.63 3.137 3.459l3.269 3.326-0.158 1.403c-0.087 0.772-0.416 2.979-0.731 4.905-0.316 1.925-0.479 3.501-0.362 3.501 0.116 0 1.95-0.957 4.076-2.126 4.648-2.557 3.604-2.556 8.22-4e-3 4.173 2.308 4.441 2.408 4.247 1.577-0.315-1.342-1.355-7.958-1.355-8.615 0-0.601 0.541-1.273 3.133-3.896 1.723-1.743 3.166-3.264 3.206-3.379 0.079-0.229-1.363-0.504-6.058-1.157l-3.037-0.423-0.928-1.983c-0.511-1.092-1.432-3.062-2.047-4.38-1.325-2.835-1.231-2.797-2.115-0.86m35.217 2.318c-1.024 2.137-1.953 4.115-2.063 4.394-0.178 0.452-0.695 0.579-4.664 1.144-2.455 0.35-4.524 0.697-4.598 0.771-0.075 0.075 1.315 1.661 3.088 3.525 2.192 2.304 3.224 3.567 3.225 3.947 0 0.307-0.332 2.433-0.737 4.724-0.405 2.292-0.737 4.224-0.737 4.295 0 0.302 0.624 0.011 4.428-2.064l4.018-2.193 1.858 1.011c1.022 0.555 2.793 1.542 3.936 2.192 2.945 1.675 2.803 2.022 1.725-4.215l-0.742-4.292 3.372-3.378c1.854-1.858 3.314-3.435 3.243-3.506-0.07-0.07-2.154-0.433-4.63-0.807-3.216-0.485-4.56-0.784-4.704-1.048-0.551-1.005-3.659-7.69-3.659-7.871 0-1.042-0.777 0.069-2.359 3.371m33.928 0.268c-2.369 5.089-1.665 4.545-6.858 5.309-2.423 0.357-4.463 0.706-4.534 0.777s1.385 1.646 3.234 3.499l3.363 3.37-0.76 4.744c-0.884 5.521-0.954 5.278 1.186 4.096 0.918-0.507 2.743-1.511 4.056-2.23l2.385-1.307 2.774 1.552c3.425 1.915 5.376 2.91 5.489 2.797 0.047-0.047-0.24-2.066-0.639-4.485-0.398-2.42-0.72-4.573-0.715-4.784s1.441-1.876 3.191-3.7c1.75-1.825 3.183-3.388 3.185-3.475 4e-3 -0.223-0.596-0.338-5.077-0.971l-3.975-0.562-2.031-4.268c-1.117-2.347-2.106-4.314-2.196-4.37-0.091-0.056-1.026 1.748-2.078 4.008m-161.54 54.601v13.513h399.51v-27.026h-399.51v13.513m0 54.484v13.575h399.51v-27.027l-199.75-0.061-199.75-0.062v13.575" fill="#ededf4"/>
  <path d="m0.431 13.943c-0.109 24.649-0.099 74.39 0.019 98.772l0.115 23.895 190.47-0.124v-136.12l-190.54-0.124-0.06 13.698m22.634 9.153c0.97 2.094 1.848 3.942 1.951 4.106 0.106 0.17 2.028 0.569 4.477 0.93 2.36 0.347 4.45 0.687 4.646 0.756 0.239 0.085-0.756 1.238-3.056 3.543l-3.411 3.417 0.784 4.619c0.431 2.54 0.783 4.767 0.783 4.949 0 0.218-0.562 0.019-1.659-0.587-7.594-4.195-6.322-3.878-9.201-2.295-1.257 0.692-3.087 1.696-4.067 2.233-1.167 0.64-1.782 0.863-1.783 0.647-2e-3 -0.18 0.344-2.413 0.768-4.961l0.771-4.634-3.396-3.402c-2.275-2.28-3.279-3.444-3.041-3.525 0.195-0.067 1.957-0.356 3.917-0.641 5.694-0.83 4.913-0.335 6.782-4.295 0.893-1.892 1.796-3.86 2.008-4.372 0.506-1.229 0.571-1.146 2.727 3.512m36.276 0c1.037 2.23 1.96 4.134 2.052 4.232s2.183 0.478 4.645 0.844c2.556 0.379 4.478 0.776 4.478 0.924 0 0.142-1.459 1.72-3.241 3.507l-3.242 3.248 0.684 4.249c0.377 2.337 0.747 4.572 0.824 4.967l0.14 0.719-2.435-1.321c-1.339-0.726-3.274-1.761-4.299-2.3l-1.863-0.979-4.033 2.242c-2.698 1.5-4.058 2.134-4.108 1.915-0.041-0.179 0.262-2.351 0.672-4.825l0.747-4.498-0.55-0.612c-0.302-0.336-1.786-1.89-3.298-3.452-1.511-1.562-2.672-2.913-2.579-3.002 0.092-0.09 2.158-0.459 4.591-0.822 2.432-0.362 4.432-0.677 4.444-0.698 0.011-0.021 0.944-2.003 2.072-4.403 1.129-2.401 2.133-4.28 2.233-4.177s1.03 2.012 2.066 4.242m34.672-3.501c1.853 4.028 3.766 7.923 3.891 7.923 0.682 0 8.648 1.31 8.79 1.445 0.101 0.096-1.248 1.663-2.997 3.481-3.721 3.867-3.519 3.139-2.485 8.956 0.385 2.163 0.656 4.005 0.603 4.094s-1.893-0.821-4.088-2.023c-4.799-2.625-3.687-2.628-8.517 0.02-2.218 1.216-4.057 2.183-4.086 2.148-0.03-0.034 0.262-1.996 0.648-4.361s0.705-4.558 0.708-4.872c5e-3 -0.401-0.933-1.564-3.126-3.88-1.723-1.819-3.163-3.393-3.199-3.497-0.037-0.105 1.621-0.437 3.685-0.739s4.123-0.613 4.577-0.692c0.777-0.136 3.106-4.267 4.72-8.372 0.292-0.743 0.382-0.705 0.876 0.369m37.932 3.501c1.11 2.365 2.032 4.316 2.051 4.336 0.018 0.02 2.024 0.335 4.456 0.699 2.433 0.365 4.517 0.722 4.633 0.793 0.115 0.071-0.715 1.083-1.845 2.249s-2.626 2.727-3.325 3.471l-1.271 1.351 0.724 4.3c1.019 6.045 1.343 5.75-3.44 3.127l-4.032-2.213-1.742 0.891c-0.957 0.49-2.843 1.495-4.19 2.233s-2.486 1.305-2.532 1.259 0.26-2.042 0.681-4.437c0.977-5.562 1.157-4.94-2.518-8.692-1.723-1.759-3.133-3.295-3.133-3.412s1.686-0.46 3.747-0.762c5.935-0.868 5.296-0.622 6.079-2.338 1.755-3.844 3.464-7.337 3.548-7.251 0.051 0.053 1 2.031 2.109 4.396m34.109 0.079c1.078 2.274 2.003 4.177 2.056 4.23 0.052 0.053 2.025 0.38 4.383 0.727 2.359 0.347 4.448 0.687 4.643 0.756 0.239 0.085-0.758 1.241-3.063 3.55l-3.418 3.425 0.69 4.243c0.38 2.333 0.753 4.567 0.83 4.962l0.14 0.719-2.19-1.194c-7.293-3.979-5.686-3.811-10.543-1.107-2.529 1.408-3.956 2.076-4.003 1.873-0.039-0.173 0.26-2.351 0.664-4.839l0.735-4.525-0.782-0.86c-0.429-0.473-1.938-2.044-3.351-3.491-1.766-1.808-2.46-2.671-2.216-2.759 0.329-0.119 8.361-1.367 8.799-1.367 0.108 0 1.123-1.988 2.255-4.419s2.137-4.338 2.235-4.238c0.097 0.099 1.058 2.041 2.136 4.314m-133.89 36.272 2.063 4.393 2.851 0.424c1.568 0.233 3.68 0.55 4.693 0.705l1.843 0.282-3.399 3.469-3.399 3.47 0.767 4.846c0.422 2.665 0.735 4.875 0.696 4.912-0.039 0.036-1.84-0.915-4.002-2.115-4.75-2.635-3.86-2.634-8.599-0.013-2.162 1.196-3.968 2.144-4.013 2.108-0.044-0.037 0.269-2.246 0.697-4.909l0.778-4.842-3.399-3.455c-2.144-2.18-3.264-3.484-3.031-3.531 0.202-0.042 2.225-0.35 4.495-0.685 2.269-0.335 4.244-0.682 4.388-0.77 0.231-0.143 1.955-3.646 3.647-7.409 0.76-1.692 0.567-1.897 2.924 3.12m36.284 0.012c1.045 2.23 1.965 4.13 2.046 4.223s2.222 0.482 4.759 0.866l4.611 0.698-3.322 3.473c-2.328 2.435-3.321 3.645-3.321 4.048 0 0.316 0.332 2.454 0.737 4.751 0.405 2.298 0.737 4.264 0.737 4.37 0 0.193-3.374-1.56-6.384-3.317-1.993-1.163-2.066-1.16-4.371 0.146-6.357 3.601-5.822 3.352-5.903 2.751-0.064-0.473 0.97-7.176 1.335-8.655 0.105-0.425-0.534-1.212-3.243-3.998-1.856-1.907-3.33-3.505-3.276-3.55 0.053-0.044 2.088-0.382 4.52-0.749s4.545-0.798 4.695-0.958c0.245-0.26 2.816-5.634 3.71-7.755 0.456-1.08 0.445-1.094 2.67 3.656m36.326 0c1.045 2.23 1.974 4.13 2.065 4.223 0.091 0.092 2.185 0.474 4.653 0.848 2.469 0.374 4.459 0.754 4.423 0.843-0.036 0.09-1.51 1.671-3.275 3.515l-3.21 3.352 0.772 4.79c0.902 5.596 0.999 5.226-1.066 4.067-7.262-4.079-6.34-3.831-8.864-2.39-3.271 1.869-5.89 3.224-5.996 3.104-0.057-0.063 0.251-2.216 0.685-4.784l0.788-4.668-3.279-3.474c-3.792-4.017-3.599-3.665-2.112-3.863 0.642-0.086 2.703-0.394 4.58-0.685l3.413-0.529 1.165-2.482c0.64-1.364 1.566-3.358 2.058-4.43 0.506-1.103 0.983-1.849 1.098-1.719 0.112 0.125 1.058 2.053 2.102 4.282m36.226-0.148c2.405 5.067 1.56 4.419 6.791 5.209 2.432 0.367 4.47 0.708 4.529 0.757 0.059 0.048-1.416 1.626-3.279 3.506-3.068 3.096-3.373 3.482-3.247 4.111 0.458 2.293 1.403 8.504 1.337 8.791-0.057 0.254-0.424 0.138-1.429-0.455-0.743-0.438-2.586-1.451-4.095-2.251l-2.743-1.456-1.065 0.547c-0.586 0.301-2.446 1.315-4.135 2.252-1.688 0.937-3.1 1.673-3.137 1.636s0.266-2.132 0.674-4.656c0.408-2.523 0.738-4.723 0.734-4.888-5e-3 -0.166-1.513-1.849-3.351-3.741l-3.343-3.44 1.815-0.273c0.999-0.15 3.127-0.468 4.73-0.706l2.914-0.433 0.592-1.339c1.308-2.958 3.542-7.515 3.638-7.42 0.055 0.056 0.987 1.968 2.07 4.249m33.46-1.22c0.8 1.679 1.72 3.656 2.046 4.391l0.592 1.339 2.914 0.433c1.602 0.238 3.731 0.556 4.729 0.706l1.816 0.273-3.343 3.44c-1.839 1.892-3.347 3.575-3.351 3.741-5e-3 0.165 0.325 2.365 0.733 4.888 0.409 2.524 0.712 4.619 0.675 4.656s-1.449-0.699-3.138-1.636c-1.688-0.937-3.549-1.951-4.134-2.252l-1.065-0.547-2.744 1.456c-1.509 0.8-3.351 1.813-4.095 2.251-1.005 0.593-1.371 0.709-1.429 0.455-0.065-0.287 0.88-6.498 1.338-8.791 0.125-0.629-0.179-1.015-3.248-4.111-1.862-1.88-3.337-3.458-3.279-3.506 0.059-0.049 2.097-0.389 4.53-0.756 5.176-0.781 4.467-0.228 6.883-5.369 1.064-2.263 1.975-4.115 2.025-4.115s0.745 1.374 1.545 3.054m-151.38 37.679 2.024 4.37 3.972 0.563c4.532 0.643 5.078 0.752 5.078 1.013 0 0.103-1.455 1.702-3.234 3.553l-3.235 3.366 0.804 4.664c0.443 2.566 0.743 4.727 0.668 4.803-0.076 0.076-1.111-0.393-2.3-1.042s-3.019-1.647-4.066-2.217l-1.904-1.038-1.905 1.038c-1.047 0.57-2.877 1.568-4.066 2.217s-2.223 1.119-2.297 1.044c-0.074-0.074 0.219-2.251 0.651-4.838l0.786-4.704-3.403-3.464-3.403-3.463 0.737-0.182c0.406-0.1 2.451-0.428 4.546-0.728 4.605-0.66 3.906-0.088 6.257-5.128 1.077-2.308 2.027-4.197 2.112-4.197s1.065 1.967 2.178 4.37m34.7-3.446c1.552 3.505 3.507 7.577 3.698 7.701 0.125 0.081 1.906 0.389 3.958 0.685 4.718 0.679 5.124 0.762 5.034 1.022-0.041 0.118-1.498 1.717-3.238 3.553l-3.163 3.34 0.757 4.706c0.417 2.589 0.718 4.747 0.67 4.795-0.116 0.116-2.045-0.866-5.501-2.8l-2.784-1.557-2.744 1.512c-1.51 0.832-3.332 1.836-4.05 2.233-1.728 0.955-1.698 1.113-0.808-4.288l0.778-4.726-3.375-3.382c-1.856-1.859-3.315-3.44-3.243-3.513 0.073-0.072 2.161-0.432 4.64-0.799l4.508-0.668 2.092-4.369c2.328-4.86 2.209-4.713 2.771-3.445m36.982 1.472c0.615 1.318 1.536 3.288 2.047 4.38l0.928 1.983 3.037 0.423c4.695 0.653 6.137 0.928 6.058 1.157-0.04 0.115-1.483 1.636-3.206 3.379-2.592 2.623-3.133 3.295-3.133 3.896 0 0.657 1.04 7.273 1.355 8.615 0.194 0.831-0.074 0.731-4.247-1.577-4.616-2.552-3.572-2.553-8.22 4e-3 -2.126 1.169-3.96 2.126-4.076 2.126-0.117 0 0.046-1.576 0.362-3.501 0.315-1.926 0.644-4.133 0.731-4.905l0.158-1.403-3.269-3.326c-1.799-1.829-3.21-3.386-3.137-3.459s2.152-0.428 4.62-0.789l4.488-0.655 1.344-2.836c0.739-1.56 1.66-3.527 2.045-4.372 0.884-1.937 0.79-1.975 2.115 0.86m35.461-1.913c0 0.181 3.108 6.866 3.659 7.871 0.144 0.264 1.488 0.563 4.704 1.048 2.476 0.374 4.56 0.737 4.63 0.807 0.071 0.071-1.389 1.648-3.243 3.506l-3.372 3.378 0.742 4.292c1.078 6.237 1.22 5.89-1.725 4.215-1.143-0.65-2.914-1.637-3.936-2.192l-1.858-1.011-4.018 2.193c-3.804 2.075-4.428 2.366-4.428 2.064 0-0.071 0.332-2.003 0.737-4.295 0.405-2.291 0.737-4.417 0.737-4.724-1e-3 -0.38-1.033-1.643-3.225-3.947-1.773-1.864-3.163-3.45-3.088-3.525 0.074-0.074 2.143-0.421 4.598-0.771 3.969-0.565 4.486-0.692 4.664-1.144 1.582-4.013 4.422-9 4.422-7.765m35.843 4.001 2.031 4.268 3.975 0.562c4.481 0.633 5.081 0.748 5.077 0.971-2e-3 0.087-1.435 1.65-3.185 3.475-1.75 1.824-3.186 3.489-3.191 3.7s0.317 2.364 0.715 4.784c0.399 2.419 0.686 4.438 0.639 4.485-0.113 0.113-2.064-0.882-5.489-2.797l-2.774-1.552-2.385 1.307c-1.313 0.719-3.138 1.723-4.056 2.23-2.14 1.182-2.07 1.425-1.186-4.096l0.76-4.744-3.363-3.37c-1.849-1.853-3.305-3.428-3.234-3.499s2.111-0.42 4.534-0.777c5.193-0.764 4.489-0.22 6.858-5.309 1.052-2.26 1.987-4.064 2.078-4.008 0.09 0.056 1.079 2.023 2.196 4.37" fill="#3c54b4"/>
  <path d="m0.361 13.882c-1e-3 7.568 0.031 10.699 0.069 6.959 0.038-3.741 0.038-9.933 0-13.76s-0.069-0.767-0.069 6.801m399.45-0.061-0.058 13.697-208.72 0.122 208.84 0.247 0.065-6.959c0.036-3.827 0.034-10.074-4e-3 -13.882s-0.095-0.759-0.126 6.775m-104.36 40.971-104.42 0.123 208.72 0.122v26.781l-208.72 0.122 104.42 0.123 104.42 0.124 0.065-6.959c0.036-3.827 0.036-10.019 0-13.759l-0.065-6.801-104.42 0.124m-295.09 13.636c-1e-3 7.567 0.031 10.698 0.069 6.958s0.038-9.932 0-13.759-0.069-0.767-0.069 6.801m295.09 40.909-104.42 0.123 208.72 0.122v26.782h-104.42c-57.433 0-104.42 0.083-104.42 0.184s47.046 0.184 104.55 0.184h104.54v-13.82c0-7.602-0.028-13.794-0.061-13.76-0.034 0.033-47.052 0.117-104.48 0.185m-295.09 13.636c-1e-3 7.568 0.031 10.699 0.069 6.958 0.038-3.74 0.038-9.932 0-13.759s-0.069-0.767-0.069 6.801m-0.056 54.361 0.064 13.698 399.63 0.246v-27.642h-399.76l0.063 13.698m399.45 0.062v13.513h-399.26v-13.35c0-7.342 0.074-13.423 0.164-13.513s89.924-0.164 199.63-0.164h199.47v13.514m-399.51 54.545v13.76l399.63-0.124 0.064-13.697 0.063-13.698h-399.76v13.759m399.51 0v13.514h-399.26v-27.027h399.26v13.513" fill="#ed7d7a"/>
 </g>
</svg>
