<?xml version="1.0" encoding="UTF-8"?>
<svg id="svg" width="900" height="600" version="1.1" viewBox="0 0 900 600" xmlns="http://www.w3.org/2000/svg" xmlns:cc="http://creativecommons.org/ns#" xmlns:dc="http://purl.org/dc/elements/1.1/" xmlns:rdf="http://www.w3.org/1999/02/22-rdf-syntax-ns#">
 <metadata>
  <rdf:RDF>
   <cc:Work rdf:about="">
    <dc:format>image/svg+xml</dc:format>
    <dc:type rdf:resource="http://purl.org/dc/dcmitype/StillImage"/>
   </cc:Work>
  </rdf:RDF>
 </metadata>
 <g transform="translate(-425.97 -467.49)">
  <rect x="425.97" y="467.49" width="900" height="600" fill="#f44434" stroke-linecap="round" stroke-width="8.8188" style="paint-order:stroke markers fill"/>
  <g fill="#ededf4" stroke-linecap="round" stroke-width="3.8733">
   <rect x="425.97" y="935.49" width="900" height="66" style="paint-order:stroke markers fill"/>
   <rect x="425.97" y="803.49" width="900" height="66" style="paint-order:stroke markers fill"/>
   <rect x="425.97" y="671.49" width="900" height="66" style="paint-order:stroke markers fill"/>
   <rect x="425.97" y="539.49" width="900" height="66" style="paint-order:stroke markers fill"/>
  </g>
  <rect x="425.97" y="467.49" width="435" height="336" fill="#3c54b4" stroke-linecap="round" stroke-width="3.9505" style="paint-order:stroke markers fill"/>
  <g transform="translate(442.98 574.09)" fill="#ededf4" fill-rule="evenodd" stroke-width="3.4557">
   <path d="m92.487 27.815c3.5751 8.1884 6.6428 15.041 6.8186 15.232 0.17244 0.19084 6.7158 1.3683 14.536 2.6178 7.8235 1.2495 14.752 2.4738 15.398 2.7223 0.79263 0.30609-2.5139 4.4687-10.158 12.783l-11.336 12.333 2.2883 15.279c1.2602 8.4009 2.4973 16.445 2.7526 17.868l0.4643 2.589-7.263-4.2994c-24.187-14.328-18.857-13.723-34.965-3.9861-8.3873 5.07-13.12 7.4753-13.276 6.7444-0.12934-0.62298 0.86226-8.4657 2.2021-17.425l2.4376-16.294-2.5934-3.0966c-1.4227-1.7032-6.4273-7.3603-11.113-12.571-5.8568-6.5105-8.1584-9.618-7.3492-9.9349 1.0911-0.4285 27.729-4.9224 29.181-4.9224 0.35818 0 3.7244-7.1586 7.4786-15.912 3.7542-8.7538 7.0872-15.621 7.4122-15.261 0.32168 0.35649 3.5088 7.3494 7.0839 15.534"/>
   <path d="m217.72 27.815c3.5751 8.1884 6.6428 15.041 6.8186 15.232 0.17244 0.19084 6.7158 1.3683 14.536 2.6178 7.8235 1.2495 14.752 2.4738 15.398 2.7223 0.79263 0.30609-2.5139 4.4687-10.158 12.783l-11.336 12.333 2.2883 15.279c1.2602 8.4009 2.4973 16.445 2.7526 17.868l0.4643 2.589-7.263-4.2994c-24.187-14.328-18.857-13.723-34.965-3.9861-8.3873 5.07-13.12 7.4753-13.276 6.7444-0.12934-0.62298 0.86226-8.4657 2.2021-17.425l2.4376-16.294-2.5934-3.0966c-1.4228-1.7032-6.4272-7.3603-11.113-12.571-5.8568-6.5105-8.1584-9.618-7.3492-9.9349 1.0911-0.4285 27.729-4.9224 29.181-4.9224 0.35818 0 3.7244-7.1586 7.4786-15.912 3.7542-8.7538 7.0872-15.621 7.4122-15.261 0.32168 0.35649 3.5088 7.3494 7.0839 15.534"/>
   <path d="m342.94 27.815c3.5751 8.1884 6.6428 15.041 6.8186 15.232 0.17244 0.19084 6.7158 1.3683 14.536 2.6178 7.8235 1.2495 14.752 2.4738 15.398 2.7223 0.79263 0.30609-2.5139 4.4687-10.158 12.783l-11.336 12.333 2.2883 15.279c1.2602 8.4009 2.4973 16.445 2.7526 17.868l0.4643 2.589-7.263-4.2994c-24.187-14.328-18.857-13.723-34.965-3.9861-8.3873 5.07-13.12 7.4753-13.276 6.7444-0.12934-0.62298 0.86226-8.4657 2.2021-17.425l2.4376-16.294-2.5934-3.0966c-1.4228-1.7032-6.4272-7.3603-11.113-12.571-5.8568-6.5105-8.1584-9.618-7.3492-9.9349 1.0911-0.4285 27.729-4.9224 29.181-4.9224 0.35818 0 3.7244-7.1586 7.4786-15.912 3.7542-8.7538 7.0872-15.621 7.4122-15.261 0.32168 0.35649 3.5088 7.3494 7.0839 15.534"/>
  </g>
  <g transform="translate(422.98 678.45)" fill="#ededf4" fill-rule="evenodd" stroke-width="3.4557">
   <path d="m92.487 27.815c3.5751 8.1884 6.6428 15.041 6.8186 15.232 0.17244 0.19084 6.7158 1.3683 14.536 2.6178 7.8235 1.2495 14.752 2.4738 15.398 2.7223 0.79263 0.30609-2.5139 4.4687-10.158 12.783l-11.336 12.333 2.2883 15.279c1.2602 8.4009 2.4973 16.445 2.7526 17.868l0.4643 2.589-7.263-4.2994c-24.187-14.328-18.857-13.723-34.965-3.9861-8.3873 5.07-13.12 7.4753-13.276 6.7444-0.12934-0.62298 0.86226-8.4657 2.2021-17.425l2.4376-16.294-2.5934-3.0966c-1.4227-1.7032-6.4273-7.3603-11.113-12.571-5.8568-6.5105-8.1584-9.618-7.3492-9.9349 1.0911-0.4285 27.729-4.9224 29.181-4.9224 0.35818 0 3.7244-7.1586 7.4786-15.912 3.7542-8.7538 7.0872-15.621 7.4122-15.261 0.32168 0.35649 3.5088 7.3494 7.0839 15.534"/>
   <path d="m217.72 27.815c3.5751 8.1884 6.6428 15.041 6.8186 15.232 0.17244 0.19084 6.7158 1.3683 14.536 2.6178 7.8235 1.2495 14.752 2.4738 15.398 2.7223 0.79263 0.30609-2.5139 4.4687-10.158 12.783l-11.336 12.333 2.2883 15.279c1.2602 8.4009 2.4973 16.445 2.7526 17.868l0.4643 2.589-7.263-4.2994c-24.187-14.328-18.857-13.723-34.965-3.9861-8.3873 5.07-13.12 7.4753-13.276 6.7444-0.12934-0.62298 0.86226-8.4657 2.2021-17.425l2.4376-16.294-2.5934-3.0966c-1.4228-1.7032-6.4272-7.3603-11.113-12.571-5.8568-6.5105-8.1584-9.618-7.3492-9.9349 1.0911-0.4285 27.729-4.9224 29.181-4.9224 0.35818 0 3.7244-7.1586 7.4786-15.912 3.7542-8.7538 7.0872-15.621 7.4122-15.261 0.32168 0.35649 3.5088 7.3494 7.0839 15.534"/>
   <path d="m342.94 27.815c3.5751 8.1884 6.6428 15.041 6.8186 15.232 0.17244 0.19084 6.7158 1.3683 14.536 2.6178 7.8235 1.2495 14.752 2.4738 15.398 2.7223 0.79263 0.30609-2.5139 4.4687-10.158 12.783l-11.336 12.333 2.2883 15.279c1.2602 8.4009 2.4973 16.445 2.7526 17.868l0.4643 2.589-7.263-4.2994c-24.187-14.328-18.857-13.723-34.965-3.9861-8.3873 5.07-13.12 7.4753-13.276 6.7444-0.12934-0.62298 0.86226-8.4657 2.2021-17.425l2.4376-16.294-2.5934-3.0966c-1.4228-1.7032-6.4272-7.3603-11.113-12.571-5.8568-6.5105-8.1584-9.618-7.3492-9.9349 1.0911-0.4285 27.729-4.9224 29.181-4.9224 0.35818 0 3.7244-7.1586 7.4786-15.912 3.7542-8.7538 7.0872-15.621 7.4122-15.261 0.32168 0.35649 3.5088 7.3494 7.0839 15.534"/>
  </g>
  <g transform="translate(422.98 469.72)" fill="#ededf4" fill-rule="evenodd" stroke-width="3.4557">
   <path d="m92.487 27.815c3.5751 8.1884 6.6428 15.041 6.8186 15.232 0.17244 0.19084 6.7158 1.3683 14.536 2.6178 7.8235 1.2495 14.752 2.4738 15.398 2.7223 0.79263 0.30609-2.5139 4.4687-10.158 12.783l-11.336 12.333 2.2883 15.279c1.2602 8.4009 2.4973 16.445 2.7526 17.868l0.4643 2.589-7.263-4.2994c-24.187-14.328-18.857-13.723-34.965-3.9861-8.3873 5.07-13.12 7.4753-13.276 6.7444-0.12934-0.62298 0.86226-8.4657 2.2021-17.425l2.4376-16.294-2.5934-3.0966c-1.4227-1.7032-6.4273-7.3603-11.113-12.571-5.8568-6.5105-8.1584-9.618-7.3492-9.9349 1.0911-0.4285 27.729-4.9224 29.181-4.9224 0.35818 0 3.7244-7.1586 7.4786-15.912 3.7542-8.7538 7.0872-15.621 7.4122-15.261 0.32168 0.35649 3.5088 7.3494 7.0839 15.534"/>
   <path d="m217.72 27.815c3.5751 8.1884 6.6428 15.041 6.8186 15.232 0.17244 0.19084 6.7158 1.3683 14.536 2.6178 7.8235 1.2495 14.752 2.4738 15.398 2.7223 0.79263 0.30609-2.5139 4.4687-10.158 12.783l-11.336 12.333 2.2883 15.279c1.2602 8.4009 2.4973 16.445 2.7526 17.868l0.4643 2.589-7.263-4.2994c-24.187-14.328-18.857-13.723-34.965-3.9861-8.3873 5.07-13.12 7.4753-13.276 6.7444-0.12934-0.62298 0.86226-8.4657 2.2021-17.425l2.4376-16.294-2.5934-3.0966c-1.4228-1.7032-6.4272-7.3603-11.113-12.571-5.8568-6.5105-8.1584-9.618-7.3492-9.9349 1.0911-0.4285 27.729-4.9224 29.181-4.9224 0.35818 0 3.7244-7.1586 7.4786-15.912 3.7542-8.7538 7.0872-15.621 7.4122-15.261 0.32168 0.35649 3.5088 7.3494 7.0839 15.534"/>
   <path d="m342.94 27.815c3.5751 8.1884 6.6428 15.041 6.8186 15.232 0.17244 0.19084 6.7158 1.3683 14.536 2.6178 7.8235 1.2495 14.752 2.4738 15.398 2.7223 0.79263 0.30609-2.5139 4.4687-10.158 12.783l-11.336 12.333 2.2883 15.279c1.2602 8.4009 2.4973 16.445 2.7526 17.868l0.4643 2.589-7.263-4.2994c-24.187-14.328-18.857-13.723-34.965-3.9861-8.3873 5.07-13.12 7.4753-13.276 6.7444-0.12934-0.62298 0.86226-8.4657 2.2021-17.425l2.4376-16.294-2.5934-3.0966c-1.4228-1.7032-6.4272-7.3603-11.113-12.571-5.8568-6.5105-8.1584-9.618-7.3492-9.9349 1.0911-0.4285 27.729-4.9224 29.181-4.9224 0.35818 0 3.7244-7.1586 7.4786-15.912 3.7542-8.7538 7.0872-15.621 7.4122-15.261 0.32168 0.35649 3.5088 7.3494 7.0839 15.534"/>
  </g>
 </g>
</svg>
