<?xml version="1.0" encoding="UTF-8"?>
<svg width="48" height="48" version="1.1" viewBox="0 0 48 48" xmlns="http://www.w3.org/2000/svg" xmlns:cc="http://creativecommons.org/ns#" xmlns:dc="http://purl.org/dc/elements/1.1/" xmlns:rdf="http://www.w3.org/1999/02/22-rdf-syntax-ns#" xmlns:xlink="http://www.w3.org/1999/xlink">
 <defs>
  <linearGradient id="linearGradient33574">
   <stop stop-color="#9cf" offset="0"/>
   <stop stop-color="#4974cf" offset="1"/>
  </linearGradient>
  <linearGradient id="linearGradient29444" x1="17.566" x2="123.4" y1="-2.7875" y2="103.05" gradientTransform="matrix(.825 0 0 .825 7.9974 24.789)" gradientUnits="userSpaceOnUse">
   <stop stop-color="#f8f8f8" offset="0"/>
   <stop stop-color="#a4c8f0" offset="1"/>
  </linearGradient>
  <linearGradient id="linearGradient33576" x1="128.94" x2="181.93" y1="12.687" y2="65.752" gradientTransform="translate(-115.71 .54171)" gradientUnits="userSpaceOnUse" xlink:href="#linearGradient33574"/>
  <linearGradient id="linearGradient33790" x1="128.94" x2="181.83" y1="12.687" y2="67.802" gradientTransform="matrix(.92857 0 0 .92857 -102.72 5.2277)" gradientUnits="userSpaceOnUse" xlink:href="#linearGradient33574"/>
 </defs>
 <metadata>
  <rdf:RDF>
   <cc:Work rdf:about="">
    <dc:format>image/svg+xml</dc:format>
    <dc:type rdf:resource="http://purl.org/dc/dcmitype/StillImage"/>
   </cc:Work>
  </rdf:RDF>
 </metadata>
 <g transform="matrix(.39686 0 0 .39686 -2.2501 -2.2501)">
  <rect x="13.229" y="13.229" width="105.83" height="105.83" ry="4.9578" fill="url(#linearGradient33576)" stroke-width=".2459"/>
  <rect x="22.49" y="22.49" width="87.312" height="87.312" ry="4.0902" fill="url(#linearGradient29444)" stroke-width=".20287"/>
  <path d="m53.678 100.54c-11.328-4.2217-17.997-8.2452-17.997-33.354 0-25.108 5.9445-32.085 17.348-35.438h39.412s4.426 2.6974 4.1582 7.2961c-0.26776 4.5987-4.1582 6.2538-4.1582 6.2538h-32.85c-5.9785 2.2602-8.5456 7.7298-9.356 14.592h42.206s4.1582 1.5105 4.1582 6.2538-4.1582 7.2961-4.1582 7.2961h-42.206c0.74606 5.6512 2.1162 9.7626 9.356 14.592h32.85s4.1582 1.2771 4.1582 6.2538c0 4.9766-4.1582 6.2538-4.1582 6.2538z" fill="url(#linearGradient33790)" stroke-width="1.8209"/>
 </g>
</svg>
