<?xml version="1.0" encoding="UTF-8"?>
<!-- Generator: Gravit.io -->
<svg width="48pt" height="48pt" style="isolation:isolate" version="1.1" viewBox="0 0 48 48" xmlns="http://www.w3.org/2000/svg" xmlns:xlink="http://www.w3.org/1999/xlink">
 <defs>
  <linearGradient id="linearGradient8012" x1="25.466" x2="67.466" y1="25.279" y2="25.279" gradientTransform="translate(-22.466 -1.2792)" gradientUnits="userSpaceOnUse">
   <stop stop-color="#f39662" offset="0"/>
   <stop stop-color="#e3163c" offset=".98261"/>
  </linearGradient>
  <linearGradient id="linearGradient8014" x1="34.836" x2="58.116" y1="25.408" y2="25.847" gradientTransform="translate(-22.466 -1.2792)" gradientUnits="userSpaceOnUse">
   <stop stop-color="#ffe1e1" offset="0"/>
   <stop stop-color="#ff8080" offset=".98261"/>
  </linearGradient>
 </defs>
 <g>
  <path d="m35 7h3c1.656 0 3 1.344 3 3v3c0 1.104 0.896 2 2 2s2-0.896 2-2v-5c0-2.76-2.24-5-5-5h-32c-2.76 0-5 2.24-5 5v19c0 1.104 0.896 2 2 2s2-0.896 2-2v-17c0-1.656 1.344-3 3-3zm-22 34c1.104 0 2 0.896 2 2s-0.896 2-2 2h-5c-2.76 0-5-2.24-5-5v-5c0-1.104 0.896-2 2-2s2 0.896 2 2v3c0 1.656 1.344 3 3 3zm28-19c0-1.104 0.896-2 2-2s2 0.896 2 2v18c0 2.76-2.24 5-5 5h-18c-1.104 0-2-0.896-2-2s0.896-2 2-2h16c1.656 0 3-1.344 3-3z" fill="url(#linearGradient8012)"/>
  <path d="m14.333 11.61c-1.6723 0.35368-2.6153 1.7545-2.0854 3.0977 0.11387 0.28849 1.0314 2.2613 1.2178 2.6183 0.06358 0.12172 0.36031 0.79164 0.65936 1.4887 0.89263 2.08 0.94615 2.2021 1.094 2.4958 0.07806 0.15501 0.17704 0.37087 0.21989 0.47961 0.04285 0.10873 0.19876 0.43888 0.34643 0.7336 0.14756 0.29473 0.34754 0.71238 0.4442 0.92814 0.09667 0.21576 0.25942 0.57789 0.36162 0.80472 0.35156 0.78027 0.66842 1.4998 0.88167 2.0017 0.11749 0.27662 0.27914 0.65685 0.3592 0.84495 0.08006 0.1881 0.21949 0.49591 0.31002 0.68401 0.60907 1.2664 0.80653 1.6921 0.99855 2.1526 0.08299 0.19917 0.28738 0.65182 0.45406 1.0059 0.16668 0.35408 0.45778 1.0059 0.64689 1.4485 1.5095 3.5331 1.9165 3.9949 3.5873 4.07 1.8857 0.0847 2.5657-0.58986 3.9004-3.8688 0.29744-0.73078 0.38516-0.92945 0.94454-2.1391 0.13469-0.29141 0.24494-0.54238 0.24494-0.55787 0-0.02597 0.137-0.31746 0.58543-1.2461 0.35317-0.73129 0.56461-1.2062 1.263-2.8366 0.26073-0.60857 0.60535-1.3871 0.76589-1.7301s0.41865-0.89525 0.57356-1.2272c0.15491-0.33194 0.31575-0.65987 0.3573-0.72867 0.08158-0.13489 0.32842-0.68481 0.63935-1.4239 0.10703-0.25449 0.3062-0.70715 0.4425-1.0059 0.1363-0.29875 0.30157-0.67898 0.36735-0.84495 0.06578-0.16598 0.18951-0.45567 0.27511-0.64378 0.50697-1.1147 0.66852-1.4656 0.82463-1.7905 0.47287-0.98437 0.55174-1.1583 0.71147-1.5692 0.16919-0.43525 0.17211-0.45084 0.17372-0.94554l0.0016-0.50295-0.17674-0.36212c-0.4645-0.95208-1.43-1.4825-2.7001-1.4835-1.573-0.0011-2.3912 0.83771-3.3946 3.4808-0.17674 0.46563-0.494 1.2156-0.68672 1.6239-0.2036 0.43103-0.43193 0.98538-0.64649 1.5692-0.14213 0.38667-0.40306 0.99996-0.74466 1.7503-0.11578 0.25449-0.31384 0.69809-0.43998 0.98578-0.12624 0.28769-0.25087 0.55928-0.27692 0.60354-0.0515 0.08721-0.14133 0.30489-0.82966 2.0118-0.24996 0.61964-0.54037 1.3167-0.64548 1.5491-0.10512 0.23236-0.26838 0.60354-0.36293 0.82483-0.60595 1.4186-0.66007 1.496-1.0205 1.4564-0.23448-0.02574-0.3589-0.16014-0.54761-0.59137-0.5464-1.2488-0.99131-2.291-1.1935-2.7964-0.08862-0.2213-0.27974-0.69206-0.42479-1.0461-0.14495-0.35408-0.3078-0.75241-0.36172-0.88519-0.05401-0.13278-0.18619-0.43153-0.29372-0.66389-0.45215-0.97713-0.64408-1.4015-0.64408-1.4241 0-0.01319-0.06539-0.16436-0.14535-0.33597-0.1699-0.36464-0.32088-0.71932-0.54379-1.2777-0.08832-0.2213-0.2219-0.53815-0.29684-0.70413-0.07494-0.16597-0.29885-0.70916-0.49742-1.2071-0.4944-1.2395-0.61008-1.5065-1.2544-2.897-0.76096-1.6424-1.9038-2.2985-3.4385-1.9741" fill="url(#linearGradient8014)"/>
 </g>
</svg>
