<?xml version="1.0" encoding="UTF-8" standalone="no"?>
<!-- Generator: Gravit.io -->

<svg
   style="isolation:isolate"
   viewBox="0 0 48 48"
   width="48pt"
   height="48pt"
   version="1.1"
   id="svg9"
   sodipodi:docname="us.svg"
   inkscape:version="1.1 (1:1.1+202105261517+ce6663b3b7)"
   xmlns:inkscape="http://www.inkscape.org/namespaces/inkscape"
   xmlns:sodipodi="http://sodipodi.sourceforge.net/DTD/sodipodi-0.dtd"
   xmlns:xlink="http://www.w3.org/1999/xlink"
   xmlns="http://www.w3.org/2000/svg"
   xmlns:svg="http://www.w3.org/2000/svg">
  <defs
     id="defs13">
    <linearGradient
       id="linearGradient860"
       x1="0"
       y1="0.5"
       x2="1"
       y2="0.5"
       gradientTransform="matrix(42,0,0,42,3,3)"
       gradientUnits="userSpaceOnUse">
      <stop
         offset="0%"
         stop-opacity="1"
         style="stop-color:#ffe1e1;stop-opacity:1"
         id="stop856" />
      <stop
         offset="98.26086956521739%"
         stop-opacity="1"
         style="stop-color:#ff8080;stop-opacity:1"
         id="stop858" />
    </linearGradient>
    <linearGradient
       id="linearGradient1929"
       x1="0"
       y1="0.5"
       x2="1"
       y2="0.5"
       gradientTransform="matrix(42,0,0,42,3,3)"
       gradientUnits="userSpaceOnUse">
      <stop
         offset="0%"
         stop-opacity="1"
         style="stop-color:#f39662;stop-opacity:1"
         id="stop1925" />
      <stop
         offset="98.26086956521739%"
         stop-opacity="1"
         style="stop-color:#e3163c;stop-opacity:1"
         id="stop1927" />
    </linearGradient>
    <linearGradient
       id="linearGradient868"
       x1="0"
       y1="0.5"
       x2="1"
       y2="0.5"
       gradientTransform="matrix(42,0,0,42,3,3)"
       gradientUnits="userSpaceOnUse">
      <stop
         offset="0%"
         stop-opacity="1"
         style="stop-color:rgb(255,153,102)"
         id="stop2-3" />
      <stop
         offset="98.26086956521739%"
         stop-opacity="1"
         style="stop-color:rgb(255,94,98)"
         id="stop4-6" />
    </linearGradient>
    <linearGradient
       inkscape:collect="always"
       xlink:href="#linearGradient1929"
       id="linearGradient8012"
       gradientUnits="userSpaceOnUse"
       x1="25.465803"
       y1="25.279186"
       x2="67.465805"
       y2="25.279186"
       gradientTransform="translate(-22.465803,-1.2791859)" />
    <linearGradient
       inkscape:collect="always"
       xlink:href="#linearGradient860"
       id="linearGradient8014"
       gradientUnits="userSpaceOnUse"
       x1="34.835579"
       y1="25.408024"
       x2="58.115734"
       y2="25.8466"
       gradientTransform="translate(-22.465803,-1.2791859)" />
  </defs>
  <sodipodi:namedview
     id="namedview11"
     pagecolor="#ffffff"
     bordercolor="#666666"
     borderopacity="1.0"
     inkscape:pageshadow="2"
     inkscape:pageopacity="0.0"
     inkscape:pagecheckerboard="0"
     inkscape:document-units="pt"
     showgrid="false"
     inkscape:zoom="10.3125"
     inkscape:cx="23.321212"
     inkscape:cy="35.006061"
     inkscape:window-width="1600"
     inkscape:window-height="852"
     inkscape:window-x="0"
     inkscape:window-y="24"
     inkscape:window-maximized="1"
     inkscape:current-layer="svg9" />
  <linearGradient
     id="_lgradient_34"
     x1="0"
     y1="0.5"
     x2="1"
     y2="0.5"
     gradientTransform="matrix(42,0,0,42,3,3)"
     gradientUnits="userSpaceOnUse">
    <stop
       offset="0%"
       stop-opacity="1"
       style="stop-color:rgb(255,153,102)"
       id="stop2" />
    <stop
       offset="98.26086956521739%"
       stop-opacity="1"
       style="stop-color:rgb(255,94,98)"
       id="stop4" />
  </linearGradient>
  <path
     id="path7"
     d="m 35,7 v 0 0 h 3 v 0 c 1.656,0 3,1.344 3,3 v 3 0 c 0,1.104 0.896,2 2,2 v 0 c 1.104,0 2,-0.896 2,-2 V 13 8 C 45,5.24 42.76,3 40,3 H 38 35 V 3 3 H 8 C 5.24,3 3,5.24 3,8 v 19 0 c 0,1.104 0.896,2 2,2 v 0 c 1.104,0 2,-0.896 2,-2 V 27 10 C 7,8.344 8.344,7 10,7 Z M 13,41 v 0 c 1.104,0 2,0.896 2,2 v 0 c 0,1.104 -0.896,2 -2,2 v 0 H 8 C 5.24,45 3,42.76 3,40 v -5 0 c 0,-1.104 0.896,-2 2,-2 v 0 c 1.104,0 2,0.896 2,2 v 0 3 c 0,1.656 1.344,3 3,3 z M 41,22 v 0 c 0,-1.104 0.896,-2 2,-2 v 0 c 1.104,0 2,0.896 2,2 v 0 18 c 0,2.76 -2.24,5 -5,5 H 22 v 0 c -1.104,0 -2,-0.896 -2,-2 v 0 c 0,-1.104 0.896,-2 2,-2 v 0 h 16 c 1.656,0 3,-1.344 3,-3 z"
     style="fill:url(#linearGradient8012);fill-opacity:1" />
  <path
     id="path0"
     d="m 14.333323,11.609691 c -1.672304,0.353675 -2.615331,1.754483 -2.085425,3.097661 0.113868,0.288489 1.031446,2.261254 1.217839,2.618347 0.06358,0.121715 0.360313,0.791642 0.659365,1.488727 0.892633,2.079994 0.946147,2.202108 1.094015,2.495834 0.07806,0.155006 0.177036,0.37087 0.219888,0.479609 0.04285,0.108732 0.198765,0.438875 0.34643,0.733599 0.147565,0.294727 0.347537,0.712375 0.444204,0.928144 0.09667,0.215764 0.259421,0.577887 0.36162,0.804715 0.351561,0.780273 0.668418,1.499792 0.881669,2.001735 0.117492,0.276619 0.279136,0.656849 0.359205,0.844953 0.08006,0.188102 0.219486,0.495908 0.310018,0.68401 0.60907,1.266422 0.806526,1.692119 0.998553,2.152619 0.08299,0.199166 0.287384,0.651822 0.454062,1.005896 0.166676,0.354077 0.457783,1.005899 0.646892,1.44849 1.509549,3.533113 1.916534,3.994919 3.587328,4.069958 1.885655,0.0847 2.565742,-0.589857 3.900365,-3.868778 0.297444,-0.730783 0.385159,-0.929447 0.944537,-2.139138 0.13469,-0.29141 0.244936,-0.54238 0.244936,-0.557872 0,-0.02597 0.137002,-0.31746 0.585432,-1.246105 0.353169,-0.731287 0.564609,-1.206172 1.263003,-2.836629 0.260729,-0.608568 0.605349,-1.38713 0.76589,-1.730141 0.160541,-0.343011 0.418654,-0.895248 0.573562,-1.227195 0.154907,-0.331944 0.315751,-0.659866 0.357295,-0.728671 0.08158,-0.134889 0.328425,-0.684814 0.639347,-1.423946 0.107028,-0.254494 0.306196,-0.707146 0.442495,-1.005896 0.136298,-0.298754 0.301567,-0.678982 0.367353,-0.844953 0.06578,-0.165976 0.189511,-0.455674 0.275112,-0.643776 0.506972,-1.114735 0.668519,-1.465592 0.824634,-1.790495 0.472872,-0.984371 0.551735,-1.158292 0.711471,-1.5692 0.169192,-0.435249 0.172109,-0.450841 0.173718,-0.94554 l 0.0016,-0.502951 L 35.723,13.040579 c -0.464503,-0.95208 -1.429962,-1.482491 -2.700108,-1.483497 -1.573022,-0.0011 -2.391218,0.83771 -3.3946,3.480807 -0.176736,0.465628 -0.493996,1.215628 -0.686725,1.623919 -0.203595,0.431026 -0.431932,0.985377 -0.64649,1.569199 -0.142133,0.386666 -0.403063,0.99996 -0.744665,1.75026 -0.115776,0.254494 -0.31384,0.698093 -0.43998,0.985779 -0.12624,0.287688 -0.250871,0.559278 -0.276923,0.603538 -0.0515,0.08721 -0.141329,0.304887 -0.829664,2.011791 -0.249965,0.619635 -0.540368,1.316721 -0.645483,1.549084 -0.10512,0.232359 -0.268375,0.603537 -0.362927,0.824833 -0.605952,1.418617 -0.660071,1.49597 -1.020482,1.456438 -0.234476,-0.02574 -0.358905,-0.160137 -0.547612,-0.591366 -0.546403,-1.248823 -0.991311,-2.29103 -1.193495,-2.796392 -0.08862,-0.221298 -0.279741,-0.692057 -0.42479,-1.046135 -0.14495,-0.354075 -0.307804,-0.752409 -0.361721,-0.885187 -0.05401,-0.132778 -0.186192,-0.431529 -0.293723,-0.663892 -0.45215,-0.977127 -0.644075,-1.401516 -0.644075,-1.424148 0,-0.01319 -0.06539,-0.164363 -0.145351,-0.33597 -0.169896,-0.364637 -0.320881,-0.719315 -0.543788,-1.277691 -0.08832,-0.221297 -0.221901,-0.538154 -0.29684,-0.704126 -0.07494,-0.165972 -0.298852,-0.709157 -0.497416,-1.207076 -0.494398,-1.239468 -0.610077,-1.50653 -1.254353,-2.896983 -0.760961,-1.64243 -1.90376,-2.298475 -3.438457,-1.974073"
     style="fill:url(#linearGradient8014);fill-opacity:1;fill-rule:nonzero;stroke:none;stroke-width:0.201179;stroke-miterlimit:4;stroke-dasharray:none;stroke-opacity:1" />
</svg>
