<?xml version="1.0" encoding="UTF-8" standalone="no"?>
<svg
   width="500"
   height="500"
   viewBox="0 0 132.29166 132.29167"
   version="1.1"
   id="svg870"
   sodipodi:docname="vi-unikey.svg"
   inkscape:version="1.1 (c4e8f9ed74, 2021-05-24)"
   xmlns:inkscape="http://www.inkscape.org/namespaces/inkscape"
   xmlns:sodipodi="http://sodipodi.sourceforge.net/DTD/sodipodi-0.dtd"
   xmlns:xlink="http://www.w3.org/1999/xlink"
   xmlns="http://www.w3.org/2000/svg"
   xmlns:svg="http://www.w3.org/2000/svg"
   xmlns:rdf="http://www.w3.org/1999/02/22-rdf-syntax-ns#"
   xmlns:cc="http://creativecommons.org/ns#"
   xmlns:dc="http://purl.org/dc/elements/1.1/">
  <sodipodi:namedview
     id="namedview10"
     pagecolor="#ffffff"
     bordercolor="#666666"
     borderopacity="1.0"
     inkscape:pageshadow="2"
     inkscape:pageopacity="0.0"
     inkscape:pagecheckerboard="0"
     showgrid="false"
     inkscape:zoom="0.33"
     inkscape:cx="-187.87879"
     inkscape:cy="295.45455"
     inkscape:window-width="1600"
     inkscape:window-height="848"
     inkscape:window-x="0"
     inkscape:window-y="28"
     inkscape:window-maximized="1"
     inkscape:current-layer="svg870" />
  <defs
     id="defs864">
    <linearGradient
       inkscape:collect="always"
       id="linearGradient9497">
      <stop
         style="stop-color:#fe8181;stop-opacity:1"
         offset="0"
         id="stop9493" />
      <stop
         style="stop-color:#9a6868;stop-opacity:1"
         offset="1"
         id="stop9495" />
    </linearGradient>
    <linearGradient
       inkscape:collect="always"
       id="linearGradient9090">
      <stop
         style="stop-color:#fafafa;stop-opacity:1"
         offset="0"
         id="stop9086" />
      <stop
         style="stop-color:#ffcdcd;stop-opacity:1"
         offset="1"
         id="stop9088" />
    </linearGradient>
    <linearGradient
       inkscape:collect="always"
       xlink:href="#linearGradient9090"
       id="linearGradient29444"
       x1="17.566334"
       y1="-2.7874727"
       x2="123.39966"
       y2="103.04585"
       gradientUnits="userSpaceOnUse"
       gradientTransform="matrix(0.8250001,0,0,0.8250001,7.9973877,24.789245)"
       spreadMethod="pad" />
    <linearGradient
       inkscape:collect="always"
       xlink:href="#linearGradient9497"
       id="linearGradient33576"
       x1="128.94177"
       y1="12.68746"
       x2="182.46413"
       y2="66.314522"
       gradientUnits="userSpaceOnUse"
       gradientTransform="translate(-115.7126,0.54171019)" />
    <linearGradient
       inkscape:collect="always"
       xlink:href="#linearGradient9497"
       id="linearGradient9027"
       x1="-147.16263"
       y1="-45.855011"
       x2="-46.2328"
       y2="55.074818"
       gradientUnits="userSpaceOnUse"
       gradientTransform="matrix(1.0485833,0,0,1.0485833,166.35177,60.40151)" />
  </defs>
  <metadata
     id="metadata867">
    <rdf:RDF>
      <cc:Work
         rdf:about="">
        <dc:format>image/svg+xml</dc:format>
        <dc:type
           rdf:resource="http://purl.org/dc/dcmitype/StillImage" />
        <dc:title />
      </cc:Work>
    </rdf:RDF>
  </metadata>
  <g
     id="g21">
    <rect
       style="fill:url(#linearGradient33576);fill-opacity:1;stroke-width:0.245901"
       id="rect28343"
       width="105.83333"
       height="105.83333"
       x="13.229168"
       y="13.229168"
       ry="4.9578118" />
    <rect
       style="fill:url(#linearGradient29444);fill-opacity:1;stroke-width:0.202868"
       id="rect28343-1"
       width="87.3125"
       height="87.3125"
       x="22.489582"
       y="22.489582"
       ry="4.0901957" />
    <path
       id="path0"
       d="m 39.48425,31.971959 c -4.612403,0.975476 -7.213383,4.839065 -5.751836,8.5437 0.314051,0.795686 2.844838,6.236795 3.358938,7.221698 0.175333,0.335704 0.993774,2.183433 1.8186,4.106074 2.461979,5.736862 2.609578,6.073667 3.017414,6.883792 0.215295,0.427529 0.488293,1.022904 0.606479,1.32282 0.118186,0.299905 0.548221,1.210463 0.95549,2.023346 0.407008,0.812893 0.958552,1.964814 1.225165,2.559927 0.266623,0.595103 0.715511,1.593879 0.997392,2.219495 0.969646,2.152081 1.843577,4.136598 2.431738,5.521011 0.324054,0.76295 0.769891,1.811669 0.990733,2.330477 0.220842,0.518807 0.605368,1.367772 0.855067,1.88658 1.679883,3.492935 2.224496,4.667055 2.754125,5.937162 0.228885,0.549322 0.792635,1.797796 1.252344,2.774374 0.45972,0.976587 1.26262,2.774383 1.784207,3.995102 4.163505,9.744728 5.286024,11.018433 9.894259,11.225403 5.200848,0.23361 7.076603,-1.626895 10.757646,-10.670524 0.820383,-2.015587 1.062309,-2.563524 2.605139,-5.899991 0.37149,-0.803739 0.675562,-1.49594 0.675562,-1.53867 0,-0.07162 0.377869,-0.875588 1.614687,-3.436899 0.974084,-2.016971 1.557257,-3.326757 3.483507,-7.823743 0.719119,-1.678499 1.669621,-3.825861 2.112411,-4.771924 0.442791,-0.946064 1.154695,-2.469194 1.58195,-3.384744 0.427253,-0.915539 0.870876,-1.819984 0.985458,-2.009756 0.225002,-0.372038 0.905834,-1.888792 1.763393,-3.927406 0.295194,-0.701922 0.844521,-1.950386 1.220449,-2.774374 0.375928,-0.823997 0.831758,-1.872706 1.013203,-2.330476 0.181443,-0.45778 0.522692,-1.256801 0.758791,-1.775608 1.398286,-3.074562 1.843851,-4.042268 2.274436,-4.938387 1.304239,-2.715003 1.521749,-3.194698 1.962319,-4.328028 0.466647,-1.200471 0.474687,-1.243473 0.479127,-2.607911 l 0.004,-1.387191 -0.487447,-0.998776 c -1.28121,-2.625946 -3.944057,-4.088877 -7.447261,-4.091656 -4.338571,-0.0031 -6.595249,2.310501 -9.36269,9.600462 -0.487458,1.284252 -1.362497,3.352835 -1.894067,4.47895 -0.561534,1.188821 -1.191317,2.717781 -1.783091,4.328028 -0.392021,1.066472 -1.111694,2.758005 -2.053872,4.827415 -0.31933,0.701922 -0.865606,1.92542 -1.213512,2.718893 -0.348184,0.793474 -0.69193,1.54255 -0.763786,1.664626 -0.142048,0.240535 -0.3898,0.840912 -2.288306,5.548747 -0.689433,1.709023 -1.490395,3.631663 -1.780318,4.272547 -0.289922,0.640873 -0.740203,1.664626 -1.000994,2.274985 -1.671285,3.912705 -1.820547,4.12605 -2.814606,4.017018 -0.646707,-0.07099 -0.989898,-0.441674 -1.510371,-1.63105 C 63.059082,70.48308 61.831974,67.608556 61.274325,66.214706 61.0299,65.604347 60.502766,64.305938 60.1027,63.329351 59.702918,62.352774 59.253746,61.25412 59.105036,60.887903 c -0.148982,-0.366218 -0.513533,-1.190205 -0.810114,-1.831089 -1.24708,-2.695027 -1.776437,-3.86554 -1.776437,-3.927962 0,-0.03639 -0.180335,-0.453334 -0.400894,-0.926643 C 55.649,53.196502 55.232566,52.218258 54.61776,50.678193 54.374174,50.067833 54.005734,49.193902 53.799047,48.736132 53.592351,48.278363 52.974777,46.780199 52.427112,45.40688 51.063503,41.988289 50.744451,41.251701 48.967469,37.416675 46.868646,32.88667 43.716677,31.077224 39.483819,31.971959"
       style="fill:url(#linearGradient9027);fill-opacity:1;fill-rule:evenodd;stroke:none;stroke-width:0.554876;stroke-miterlimit:4;stroke-dasharray:none;stroke-opacity:1" />
  </g>
</svg>
