<?xml version="1.0" encoding="UTF-8"?>
<svg width="48" height="48" version="1.1" viewBox="0 0 48 48" xmlns="http://www.w3.org/2000/svg" xmlns:cc="http://creativecommons.org/ns#" xmlns:dc="http://purl.org/dc/elements/1.1/" xmlns:rdf="http://www.w3.org/1999/02/22-rdf-syntax-ns#" xmlns:xlink="http://www.w3.org/1999/xlink">
 <defs>
  <linearGradient id="linearGradient9497">
   <stop stop-color="#fe8181" offset="0"/>
   <stop stop-color="#9a6868" offset="1"/>
  </linearGradient>
  <linearGradient id="linearGradient29444" x1="17.566" x2="123.4" y1="-2.7875" y2="103.05" gradientTransform="matrix(.825 0 0 .825 7.9974 24.789)" gradientUnits="userSpaceOnUse">
   <stop stop-color="#fafafa" offset="0"/>
   <stop stop-color="#ffcdcd" offset="1"/>
  </linearGradient>
  <linearGradient id="linearGradient33576" x1="128.94" x2="182.46" y1="12.687" y2="66.315" gradientTransform="translate(-115.71 .54171)" gradientUnits="userSpaceOnUse" xlink:href="#linearGradient9497"/>
  <linearGradient id="linearGradient9027" x1="-147.16" x2="-46.233" y1="-45.855" y2="55.075" gradientTransform="matrix(1.0486,0,0,1.0486,166.35,60.402)" gradientUnits="userSpaceOnUse" xlink:href="#linearGradient9497"/>
 </defs>
 <metadata>
  <rdf:RDF>
   <cc:Work rdf:about="">
    <dc:format>image/svg+xml</dc:format>
    <dc:type rdf:resource="http://purl.org/dc/dcmitype/StillImage"/>
   </cc:Work>
  </rdf:RDF>
 </metadata>
 <g transform="matrix(.39686 0 0 .39686 -2.2501 -2.2501)">
  <rect x="13.229" y="13.229" width="105.83" height="105.83" ry="4.9578" fill="url(#linearGradient33576)" stroke-width=".2459"/>
  <rect x="22.49" y="22.49" width="87.312" height="87.312" ry="4.0902" fill="url(#linearGradient29444)" stroke-width=".20287"/>
  <path d="m39.484 31.972c-4.6124 0.97548-7.2134 4.8391-5.7518 8.5437 0.31405 0.79569 2.8448 6.2368 3.3589 7.2217 0.17533 0.3357 0.99377 2.1834 1.8186 4.1061 2.462 5.7369 2.6096 6.0737 3.0174 6.8838 0.2153 0.42753 0.48829 1.0229 0.60648 1.3228s0.54822 1.2105 0.95549 2.0233c0.40701 0.81289 0.95855 1.9648 1.2252 2.5599 0.26662 0.5951 0.71551 1.5939 0.99739 2.2195 0.96965 2.1521 1.8436 4.1366 2.4317 5.521 0.32405 0.76295 0.76989 1.8117 0.99073 2.3305 0.22084 0.51881 0.60537 1.3678 0.85507 1.8866 1.6799 3.4929 2.2245 4.6671 2.7541 5.9372 0.22888 0.54932 0.79264 1.7978 1.2523 2.7744 0.45972 0.97659 1.2626 2.7744 1.7842 3.9951 4.1635 9.7447 5.286 11.018 9.8943 11.225 5.2008 0.23361 7.0766-1.6269 10.758-10.671 0.82038-2.0156 1.0623-2.5635 2.6051-5.9 0.37149-0.80374 0.67556-1.4959 0.67556-1.5387 0-0.07162 0.37787-0.87559 1.6147-3.4369 0.97408-2.017 1.5573-3.3268 3.4835-7.8237 0.71912-1.6785 1.6696-3.8259 2.1124-4.7719 0.44279-0.94606 1.1547-2.4692 1.582-3.3847 0.42725-0.91554 0.87088-1.82 0.98546-2.0098 0.225-0.37204 0.90583-1.8888 1.7634-3.9274 0.29519-0.70192 0.84452-1.9504 1.2204-2.7744 0.37593-0.824 0.83176-1.8727 1.0132-2.3305 0.18144-0.45778 0.52269-1.2568 0.75879-1.7756 1.3983-3.0746 1.8439-4.0423 2.2744-4.9384 1.3042-2.715 1.5217-3.1947 1.9623-4.328 0.46665-1.2005 0.47469-1.2435 0.47913-2.6079l4e-3 -1.3872-0.48745-0.99878c-1.2812-2.6259-3.9441-4.0889-7.4473-4.0917-4.3386-0.0031-6.5952 2.3105-9.3627 9.6005-0.48746 1.2843-1.3625 3.3528-1.8941 4.479-0.56153 1.1888-1.1913 2.7178-1.7831 4.328-0.39202 1.0665-1.1117 2.758-2.0539 4.8274-0.31933 0.70192-0.86561 1.9254-1.2135 2.7189-0.34818 0.79347-0.69193 1.5426-0.76379 1.6646-0.14205 0.24054-0.3898 0.84091-2.2883 5.5487-0.68943 1.709-1.4904 3.6317-1.7803 4.2725-0.28992 0.64087-0.7402 1.6646-1.001 2.275-1.6713 3.9127-1.8205 4.126-2.8146 4.017-0.64671-0.07099-0.9899-0.44167-1.5104-1.631-1.507-3.4444-2.7341-6.3189-3.2918-7.7128-0.24442-0.61036-0.77156-1.9088-1.1716-2.8854-0.39978-0.97658-0.84895-2.0752-0.99766-2.4414-0.14898-0.36622-0.51353-1.1902-0.81011-1.8311-1.2471-2.695-1.7764-3.8655-1.7764-3.928 0-0.03639-0.18034-0.45333-0.40089-0.92664-0.46859-1.0057-0.88502-1.984-1.4998-3.524-0.24359-0.61036-0.61203-1.4843-0.81871-1.9421-0.2067-0.45777-0.82427-1.9559-1.3719-3.3293-1.3636-3.4186-1.6827-4.1552-3.4596-7.9902-2.0988-4.53-5.2508-6.3395-9.4836-5.4447" fill="url(#linearGradient9027)" fill-rule="evenodd"/>
 </g>
</svg>
