<?xml version="1.0" encoding="UTF-8" standalone="no"?>
<svg
   xmlns:dc="http://purl.org/dc/elements/1.1/"
   xmlns:cc="http://creativecommons.org/ns#"
   xmlns:rdf="http://www.w3.org/1999/02/22-rdf-syntax-ns#"
   xmlns:svg="http://www.w3.org/2000/svg"
   xmlns="http://www.w3.org/2000/svg"
   width="500"
   height="500"
   viewBox="0 0 132.29166 132.29167"
   version="1.1"
   id="svg870">
  <defs
     id="defs864" />
  <metadata
     id="metadata867">
    <rdf:RDF>
      <cc:Work
         rdf:about="">
        <dc:format>image/svg+xml</dc:format>
        <dc:type
           rdf:resource="http://purl.org/dc/dcmitype/StillImage" />
        <dc:title></dc:title>
      </cc:Work>
    </rdf:RDF>
  </metadata>
  <g
     id="layer1"
     transform="translate(0,-164.70832)">
    <g
       id="g834">
      <rect
         ry="15.012631"
         y="177.93748"
         x="13.229166"
         height="105.83333"
         width="105.83333"
         id="rect40"
         style="fill:#e3163c;fill-opacity:1;stroke:none;stroke-width:2.93063;stroke-linecap:butt;stroke-linejoin:round;stroke-miterlimit:4;stroke-dasharray:none;stroke-opacity:1;paint-order:normal" />
      <path
         id="path0"
         d="m 41.028548,198.14504 c -4.398698,0.93028 -6.879167,4.61486 -5.485342,8.14785 0.299509,0.75882 2.713038,5.94783 3.203311,6.8871 0.167216,0.32015 0.947737,2.08227 1.734344,3.91583 2.347912,5.47106 2.48867,5.79226 2.877608,6.56485 0.205317,0.40772 0.465667,0.97551 0.578379,1.26153 0.112713,0.28601 0.522817,1.15438 0.911225,1.9296 0.388144,0.77523 0.914135,1.87378 1.1684,2.44132 0.254265,0.56753 0.68236,1.52003 0.951177,2.11666 0.924719,2.05237 1.758156,3.94494 2.319073,5.26521 0.309033,0.7276 0.734219,1.72773 0.944827,2.2225 0.210608,0.49477 0.577321,1.3044 0.815446,1.79917 1.602052,3.3311 2.121429,4.45082 2.626519,5.66208 0.218281,0.52387 0.755914,1.7145 1.194329,2.64583 0.438414,0.93134 1.204118,2.64584 1.701535,3.81 3.970602,9.29323 5.041106,10.50793 9.435835,10.70531 4.95988,0.22278 6.748727,-1.55152 10.259219,-10.17614 0.782373,-1.9222 1.01309,-2.44475 2.484437,-5.62663 0.354278,-0.7665 0.644261,-1.42663 0.644261,-1.46738 0,-0.0683 0.360362,-0.83502 1.539875,-3.27766 0.928952,-1.92352 1.485106,-3.17262 3.322108,-7.46125 0.6858,-1.60073 1.592263,-3.6486 2.014538,-4.55083 0.422275,-0.90223 1.101195,-2.35479 1.508654,-3.22792 0.407458,-0.87312 0.830527,-1.73566 0.9398,-1.91664 0.214577,-0.3548 0.863864,-1.80128 1.681691,-3.74544 0.281517,-0.6694 0.805392,-1.86002 1.163902,-2.64583 0.358511,-0.78582 0.793221,-1.78594 0.966259,-2.2225 0.173037,-0.43657 0.498475,-1.19857 0.723635,-1.69334 1.3335,-2.93211 1.758421,-3.85498 2.169054,-4.70958 1.243807,-2.58921 1.45124,-3.04668 1.871398,-4.1275 0.445029,-1.14485 0.452702,-1.18586 0.456936,-2.48708 l 0.0042,-1.32292 -0.464873,-0.9525 c -1.221846,-2.50428 -3.761317,-3.89943 -7.10221,-3.90208 -4.137554,-0.003 -6.289675,2.20345 -8.928894,9.15565 -0.464873,1.22475 -1.299369,3.19749 -1.80631,4.27143 -0.535517,1.13374 -1.136121,2.59186 -1.700477,4.1275 -0.373857,1.01706 -1.060186,2.63022 -1.958711,4.60375 -0.304535,0.6694 -0.8255,1.83621 -1.157287,2.59292 -0.332052,0.75671 -0.659871,1.47108 -0.728398,1.5875 -0.135467,0.22939 -0.37174,0.80195 -2.182283,5.29166 -0.65749,1.62984 -1.421342,3.4634 -1.697832,4.07459 -0.276489,0.61118 -0.705908,1.5875 -0.954616,2.16958 -1.59385,3.73142 -1.736196,3.93488 -2.684198,3.8309 -0.616744,-0.0677 -0.944034,-0.42121 -1.440392,-1.55548 -1.437216,-3.28481 -2.607469,-6.02615 -3.139281,-7.35542 -0.233098,-0.58208 -0.735806,-1.82033 -1.117335,-2.75167 -0.381265,-0.93133 -0.809625,-1.97908 -0.951442,-2.32833 -0.142081,-0.34925 -0.489744,-1.13506 -0.772583,-1.74625 -1.189302,-2.57016 -1.694127,-3.68644 -1.694127,-3.74597 0,-0.0347 -0.17198,-0.43233 -0.382323,-0.88371 -0.446882,-0.95911 -0.844021,-1.89203 -1.430338,-3.36074 -0.232304,-0.58208 -0.583671,-1.41552 -0.780785,-1.85208 -0.197115,-0.43656 -0.786077,-1.86531 -1.308365,-3.175 -1.300427,-3.2602 -1.604698,-3.96266 -3.299354,-7.62 -2.001573,-4.32012 -5.007504,-6.04573 -9.044252,-5.19245"
         style="fill:#fbf8f9;fill-rule:evenodd;stroke:#e699ac;stroke-width:0.529167;stroke-miterlimit:4;stroke-dasharray:none;stroke-opacity:1" />
    </g>
  </g>
</svg>
