<?xml version="1.0" encoding="UTF-8"?>
<svg width="48" height="48" version="1.1" viewBox="0 0 48 48" xmlns="http://www.w3.org/2000/svg" xmlns:cc="http://creativecommons.org/ns#" xmlns:dc="http://purl.org/dc/elements/1.1/" xmlns:rdf="http://www.w3.org/1999/02/22-rdf-syntax-ns#">
 <metadata>
  <rdf:RDF>
   <cc:Work rdf:about="">
    <dc:format>image/svg+xml</dc:format>
    <dc:type rdf:resource="http://purl.org/dc/dcmitype/StillImage"/>
   </cc:Work>
  </rdf:RDF>
 </metadata>
 <g transform="matrix(.39686 0 0 .39686 -2.2501 -67.618)">
  <rect x="13.229" y="177.94" width="105.83" height="105.83" ry="15.013" fill="#e3163c" style="paint-order:normal"/>
  <path d="m41.029 198.15c-4.3987 0.93028-6.8792 4.6149-5.4853 8.1478 0.29951 0.75882 2.713 5.9478 3.2033 6.8871 0.16722 0.32015 0.94774 2.0823 1.7343 3.9158 2.3479 5.4711 2.4887 5.7923 2.8776 6.5648 0.20532 0.40772 0.46567 0.97551 0.57838 1.2615 0.11271 0.28601 0.52282 1.1544 0.91122 1.9296 0.38814 0.77523 0.91414 1.8738 1.1684 2.4413 0.25426 0.56753 0.68236 1.52 0.95118 2.1167 0.92472 2.0524 1.7582 3.9449 2.3191 5.2652 0.30903 0.7276 0.73422 1.7277 0.94483 2.2225s0.57732 1.3044 0.81545 1.7992c1.6021 3.3311 2.1214 4.4508 2.6265 5.6621 0.21828 0.52387 0.75591 1.7145 1.1943 2.6458 0.43841 0.93134 1.2041 2.6458 1.7015 3.81 3.9706 9.2932 5.0411 10.508 9.4358 10.705 4.9599 0.22278 6.7487-1.5515 10.259-10.176 0.78237-1.9222 1.0131-2.4448 2.4844-5.6266 0.35428-0.7665 0.64426-1.4266 0.64426-1.4674 0-0.0683 0.36036-0.83502 1.5399-3.2777 0.92895-1.9235 1.4851-3.1726 3.3221-7.4612 0.6858-1.6007 1.5923-3.6486 2.0145-4.5508s1.1012-2.3548 1.5087-3.2279c0.40746-0.87312 0.83053-1.7357 0.9398-1.9166 0.21458-0.3548 0.86386-1.8013 1.6817-3.7454 0.28152-0.6694 0.80539-1.86 1.1639-2.6458 0.35851-0.78582 0.79322-1.7859 0.96626-2.2225 0.17304-0.43657 0.49848-1.1986 0.72364-1.6933 1.3335-2.9321 1.7584-3.855 2.1691-4.7096 1.2438-2.5892 1.4512-3.0467 1.8714-4.1275 0.44503-1.1448 0.4527-1.1859 0.45694-2.4871l0.0042-1.3229-0.46487-0.9525c-1.2218-2.5043-3.7613-3.8994-7.1022-3.9021-4.1376-3e-3 -6.2897 2.2034-8.9289 9.1556-0.46487 1.2248-1.2994 3.1975-1.8063 4.2714-0.53552 1.1337-1.1361 2.5919-1.7005 4.1275-0.37386 1.0171-1.0602 2.6302-1.9587 4.6038-0.30454 0.6694-0.8255 1.8362-1.1573 2.5929-0.33205 0.75671-0.65987 1.4711-0.7284 1.5875-0.13547 0.22939-0.37174 0.80195-2.1823 5.2917-0.65749 1.6298-1.4213 3.4634-1.6978 4.0746-0.27649 0.61118-0.70591 1.5875-0.95462 2.1696-1.5938 3.7314-1.7362 3.9349-2.6842 3.8309-0.61674-0.0677-0.94403-0.42121-1.4404-1.5555-1.4372-3.2848-2.6075-6.0262-3.1393-7.3554-0.2331-0.58208-0.73581-1.8203-1.1173-2.7517-0.38126-0.93133-0.80962-1.9791-0.95144-2.3283-0.14208-0.34925-0.48974-1.1351-0.77258-1.7462-1.1893-2.5702-1.6941-3.6864-1.6941-3.746 0-0.0347-0.17198-0.43233-0.38232-0.88371-0.44688-0.95911-0.84402-1.892-1.4303-3.3607-0.2323-0.58208-0.58367-1.4155-0.78078-1.8521-0.19712-0.43656-0.78608-1.8653-1.3084-3.175-1.3004-3.2602-1.6047-3.9627-3.2994-7.62-2.0016-4.3201-5.0075-6.0457-9.0443-5.1924" fill="#fbf8f9" fill-rule="evenodd" stroke="#e699ac" stroke-width=".52917"/>
 </g>
</svg>
